<?xml version="1.0" standalone="no"?>
<!DOCTYPE svg PUBLIC "-//W3C//DTD SVG 20010904//EN"
 "http://www.w3.org/TR/2001/REC-SVG-20010904/DTD/svg10.dtd">
<svg version="1.0" xmlns="http://www.w3.org/2000/svg"
 width="343.000000pt" height="343.000000pt" viewBox="0 0 343.000000 343.000000"
 preserveAspectRatio="xMidYMid meet">
<metadata>
Created by potrace 1.14, written by Peter Selinger 2001-2017
</metadata>
<g transform="translate(0.000000,343.000000) scale(0.100000,-0.100000)"
fill="#000000" stroke="none">
<path d="M1589 3206 c-2 -2 -26 -7 -54 -10 -63 -7 -150 -22 -150 -26 0 -1 -13
-3 -29 -5 -16 -2 -36 -7 -45 -11 -9 -4 -24 -9 -34 -11 -11 -2 -66 -22 -124
-44 -93 -36 -132 -56 -243 -120 -107 -61 -293 -222 -383 -330 -34 -41 -137
-194 -137 -204 0 -4 -10 -21 -22 -38 -13 -18 -22 -32 -20 -32 3 0 -16 -47 -48
-120 -8 -19 -23 -65 -25 -75 0 -3 -4 -11 -8 -17 -5 -7 -5 -17 -2 -23 3 -5 2
-10 -3 -10 -5 0 -9 -6 -10 -12 -1 -22 -11 -73 -13 -73 -2 0 -9 -44 -12 -80 -1
-16 -5 -34 -9 -40 -8 -15 -7 -301 3 -344 6 -31 12 -58 23 -121 2 -8 9 -35 16
-60 7 -25 13 -49 14 -55 1 -5 7 -20 14 -32 7 -12 12 -27 12 -33 0 -6 10 -32
22 -58 12 -26 23 -53 24 -60 1 -8 10 -22 18 -31 9 -10 16 -22 16 -27 0 -5 16
-33 35 -63 19 -29 35 -55 35 -57 0 -3 11 -17 25 -32 14 -15 25 -30 25 -34 0
-21 193 -215 275 -276 60 -44 89 -64 145 -98 56 -34 114 -64 130 -69 3 0 19
-8 36 -18 17 -9 34 -14 36 -11 3 2 11 -2 18 -11 7 -8 18 -15 24 -15 6 0 47
-11 91 -25 81 -26 178 -48 270 -62 63 -10 376 -9 430 1 22 4 49 9 60 11 43 7
163 36 210 51 48 15 81 28 154 62 18 8 39 15 47 15 8 0 14 3 14 7 0 6 72 44
78 41 1 -1 8 3 15 9 6 6 44 32 83 58 132 87 240 187 353 327 29 37 81 116 81
125 0 5 5 10 10 10 6 0 10 6 10 14 0 8 6 21 13 28 21 22 100 203 112 258 2 8
8 27 13 41 6 15 8 30 5 33 -4 3 -2 6 3 6 5 0 10 8 10 18 1 18 10 69 21 117 13
59 7 440 -7 440 -2 0 -4 9 -6 20 -2 11 -5 27 -7 35 -2 8 -7 33 -12 55 -4 22
-10 45 -14 50 -3 6 -7 17 -8 25 -1 9 -14 41 -28 73 -13 31 -24 60 -24 63 2 11
-114 214 -122 214 -5 0 -9 5 -9 11 0 10 -30 52 -85 118 -31 38 -165 173 -165
167 0 -4 -8 2 -18 12 -48 45 -202 152 -220 152 -5 0 -15 6 -21 14 -7 8 -24 17
-39 21 -15 4 -29 10 -32 15 -12 20 -326 127 -338 116 -3 -3 -10 -1 -17 4 -6 5
-29 12 -51 14 -21 3 -50 8 -64 11 -27 7 -365 17 -371 11z"/>
</g>
</svg>
